<?xml version="1.0" standalone="no"?>
<!DOCTYPE svg PUBLIC "-//W3C//DTD SVG 20010904//EN"
 "http://www.w3.org/TR/2001/REC-SVG-20010904/DTD/svg10.dtd">
<svg version="1.0" xmlns="http://www.w3.org/2000/svg"
 width="225.000000pt" height="225.000000pt" viewBox="0 0 225.000000 225.000000"
 preserveAspectRatio="xMidYMid meet">

<g transform="translate(0.000000,225.000000) scale(0.100000,-0.100000)"
fill="#000000" stroke="none">
<path d="M865 1629 c-189 -25 -255 -74 -225 -165 7 -19 14 -34 16 -34 3 0 42
10 87 22 63 17 110 22 207 23 119 0 128 -1 185 -30 79 -40 98 -69 103 -154 l4
-68 -32 -6 c-17 -4 -100 -14 -183 -22 -192 -19 -261 -32 -317 -56 -100 -44
-140 -111 -140 -234 0 -97 19 -144 79 -198 85 -76 182 -102 386 -102 209 1
336 34 413 107 l32 32 0 311 c0 351 -3 372 -70 447 -47 54 -116 93 -201 113
-82 19 -254 27 -344 14z m375 -683 l0 -144 -52 -23 c-43 -18 -71 -23 -153 -23
-89 -1 -105 2 -144 24 -60 34 -83 79 -78 149 3 47 9 59 40 87 19 18 54 38 77
44 48 13 170 27 253 29 l57 1 0 -144z"/>
<path d="M1660 1627 c-50 -18 -80 -67 -80 -134 0 -49 4 -59 33 -88 59 -59 155
-59 214 0 29 29 33 39 33 87 0 57 -24 109 -59 127 -33 18 -103 22 -141 8z"/>
</g>
</svg>
